<svg width="13" height="15" viewBox="0 0 13 15" fill="none" xmlns="http://www.w3.org/2000/svg">
<path fill-rule="evenodd" clip-rule="evenodd" d="M6.16679 14.3333C5.96745 14.3333 5.79691 14.2777 5.64152 14.2055C5.12756 13.9497 4.49296 13.5843 4.02061 13.3039C3.68256 13.1033 3.51353 13.0029 3.33368 13.0014C3.15382 12.9998 2.98635 13.0954 2.65141 13.2865L1.98142 13.6687C1.64595 13.8339 1.07912 14.0445 0.568148 13.7348C0.212533 13.5192 0.0948584 13.1567 0.0464011 12.8288C6.08961e-05 12.5153 9.01444e-05 12.1065 0.000123881 11.6355L0.000125311 4.46342C0.000111562 3.55169 0.000100474 2.81681 0.0778076 2.23883C0.158485 1.63876 0.331081 1.13351 0.732359 0.732235C1.13364 0.330957 1.63889 0.158361 2.23896 0.0776837C2.81693 -2.261e-05 3.55182 -1.2375e-05 4.46353 3.23436e-07L4.46354 3.23436e-07L7.87004 3.23436e-07L7.87004 3.23436e-07C8.78176 -1.2375e-05 9.51665 -2.261e-05 10.0946 0.0776837C10.6947 0.158361 11.1999 0.330957 11.6012 0.732235C12.0025 1.13351 12.1751 1.63876 12.2558 2.23883C12.3335 2.81681 12.3335 3.55169 12.3335 4.46342L12.3335 11.6355C12.3335 12.1065 12.3335 12.5153 12.2872 12.8288C12.2387 13.1567 12.121 13.5192 11.7654 13.7348C11.2545 14.0445 10.6876 13.8339 10.3522 13.6687L9.68217 13.2865C9.34723 13.0954 9.17976 12.9998 8.9999 13.0014C8.82004 13.0029 8.65102 13.1033 8.31297 13.3039C7.84062 13.5843 7.20602 13.9497 6.69205 14.2055C6.53667 14.2777 6.36614 14.3333 6.16679 14.3333ZM3.69538 8.97141C3.43503 8.71106 3.43503 8.28895 3.69538 8.0286L7.69538 4.0286C7.95573 3.76825 8.37784 3.76825 8.63819 4.0286C8.89854 4.28895 8.89854 4.71106 8.63819 4.97141L4.63819 8.97141C4.37784 9.23176 3.95573 9.23176 3.69538 8.97141ZM4.17277 3.83333H4.16679C3.7986 3.83333 3.50012 4.13181 3.50012 4.5C3.50012 4.86819 3.7986 5.16667 4.16679 5.16667H4.17277C4.54096 5.16667 4.83943 4.86819 4.83943 4.5C4.83943 4.13181 4.54096 3.83333 4.17277 3.83333ZM8.16081 7.83333C7.79262 7.83333 7.49414 8.13181 7.49414 8.5C7.49414 8.86819 7.79262 9.16667 8.16081 9.16667H8.16679C8.53498 9.16667 8.83346 8.86819 8.83346 8.5C8.83346 8.13181 8.53498 7.83333 8.16679 7.83333H8.16081Z" fill="white"/>
</svg>
