<svg width="15" height="16" viewBox="0 0 15 16" fill="none" xmlns="http://www.w3.org/2000/svg">
<path fill-rule="evenodd" clip-rule="evenodd" d="M9.23283 5.45459L10.0399 5.45459C11.0345 5.45458 11.8362 5.45456 12.4667 5.53933C13.1214 5.62735 13.6725 5.81563 14.1103 6.25339C14.5481 6.69115 14.7363 7.24233 14.8244 7.89695C14.9091 8.52748 14.9091 9.32916 14.9091 10.3238V11.1309C14.9091 12.1255 14.9091 12.9272 14.8244 13.5577C14.7363 14.2123 14.5481 14.7635 14.1103 15.2012C13.6725 15.639 13.1214 15.8273 12.4667 15.9153C11.8362 16.0001 11.0345 16.0001 10.0399 16H9.23283C8.23822 16.0001 7.43653 16.0001 6.80601 15.9153C6.15139 15.8273 5.60021 15.639 5.16245 15.2012C4.72469 14.7635 4.5364 14.2123 4.44839 13.5577C4.36362 12.9272 4.36363 12.1255 4.36365 11.1309L4.36365 10.3238C4.36363 9.32916 4.36362 8.52747 4.44839 7.89695C4.5364 7.24233 4.72469 6.69115 5.16245 6.25339C5.60021 5.81563 6.15139 5.62735 6.80601 5.53933C7.43653 5.45456 8.23822 5.45458 9.23283 5.45459ZM6.95137 6.62052C6.41772 6.69226 6.13512 6.8235 5.93384 7.02478C5.73256 7.22606 5.60132 7.50866 5.52957 8.04231C5.45572 8.59166 5.45456 9.31974 5.45456 10.3637V11.091C5.45456 12.1349 5.45572 12.863 5.52957 13.4123C5.60132 13.946 5.73255 14.2286 5.93384 14.4299C6.13512 14.6311 6.41772 14.7624 6.95137 14.8341C7.50072 14.908 8.2288 14.9091 9.27274 14.9091H10C11.044 14.9091 11.772 14.908 12.3214 14.8341C12.855 14.7624 13.1376 14.6311 13.3389 14.4299C13.5402 14.2286 13.6714 13.946 13.7432 13.4123C13.817 12.863 13.8182 12.1349 13.8182 11.091V10.3637C13.8182 9.31974 13.817 8.59166 13.7432 8.04231C13.6714 7.50866 13.5402 7.22606 13.3389 7.02478C13.1376 6.8235 12.855 6.69226 12.3214 6.62052C11.772 6.54666 11.044 6.5455 10 6.5455H9.27274C8.2288 6.5455 7.50072 6.54666 6.95137 6.62052Z" fill="white"/>
<path fill-rule="evenodd" clip-rule="evenodd" d="M5.96443 1.82369e-07H6.03557C7.20086 -8.61745e-06 8.12403 -1.55514e-05 8.85437 0.0863133C9.60416 0.174942 10.2214 0.361006 10.737 0.784146C10.9119 0.927698 11.0723 1.08809 11.2159 1.26301C11.6169 1.75164 11.805 2.33156 11.899 3.02941C11.9914 3.71511 11.9991 4.56991 11.9999 5.63593C12.0001 5.93718 11.7561 6.18158 11.4549 6.18182C11.1536 6.18206 10.9092 5.93804 10.909 5.63679C10.9081 4.55221 10.8987 3.77472 10.8179 3.1751C10.7387 2.58763 10.5975 2.22919 10.3726 1.95507C10.2744 1.83539 10.1646 1.72565 10.0449 1.62743C9.75591 1.39024 9.37311 1.24613 8.72631 1.16968C8.06746 1.0918 7.20881 1.09091 6 1.09091C4.79119 1.09091 3.93254 1.0918 3.27369 1.16968C2.62689 1.24613 2.24409 1.39024 1.95507 1.62743C1.83539 1.72565 1.72565 1.83539 1.62743 1.95507C1.39024 2.24409 1.24613 2.62689 1.16968 3.27369C1.0918 3.93254 1.09091 4.79119 1.09091 6C1.09091 7.20881 1.0918 8.06746 1.16968 8.72631C1.24613 9.37311 1.39024 9.75591 1.62743 10.0449C1.72565 10.1646 1.83539 10.2744 1.95507 10.3726C2.22919 10.5975 2.58763 10.7387 3.1751 10.8179C3.77472 10.8987 4.55221 10.9081 5.63679 10.909C5.93804 10.9092 6.18206 11.1536 6.18182 11.4549C6.18158 11.7561 5.93718 12.0001 5.63593 11.9999C4.56991 11.9991 3.71511 11.9914 3.02941 11.899C2.33156 11.805 1.75164 11.6169 1.26301 11.2159C1.08809 11.0723 0.927697 10.9119 0.784145 10.737C0.361005 10.2214 0.174941 9.60416 0.0863128 8.85436C-1.58548e-05 8.12402 -8.79084e-06 7.20085 1.82369e-07 6.03557V5.96443C-8.61745e-06 4.79915 -1.55514e-05 3.87598 0.0863133 3.14564C0.174942 2.39584 0.361006 1.7786 0.784146 1.26301C0.927698 1.08809 1.08809 0.927697 1.26301 0.784146C1.7786 0.361005 2.39584 0.174941 3.14564 0.0863129C3.87598 -1.58548e-05 4.79915 -8.79084e-06 5.96443 1.82369e-07Z" fill="white"/>
</svg>
