<svg width="48" height="48" viewBox="0 0 48 48" fill="none" xmlns="http://www.w3.org/2000/svg">
<rect width="48" height="48" rx="4" fill="#0B091A"/>
<g clip-path="url(#clip0_770_2620)">
<path fill-rule="evenodd" clip-rule="evenodd" d="M26.9195 14.7875C24.9665 14.7375 23.0325 14.7375 21.0795 14.7875H21.0215C19.4965 14.8275 18.2695 14.8575 17.2865 15.0275C16.2565 15.2076 15.4195 15.5476 14.7135 16.2578C14.0095 16.968 13.6675 17.7883 13.4915 18.8085C13.3235 19.7688 13.2985 20.9692 13.2665 22.4496V22.5096C13.2445 23.4998 13.2445 24.5002 13.2665 25.4904V25.5504C13.2995 27.0308 13.3245 28.2312 13.4925 29.1915C13.6685 30.2117 14.0105 31.032 14.7145 31.7422C15.4205 32.4524 16.2575 32.7924 17.2875 32.9725C18.2705 33.1425 19.4976 33.1725 21.0226 33.2125H21.0805C23.0335 33.2625 24.9675 33.2625 26.9205 33.2125H26.9785C28.5035 33.1725 29.7305 33.1425 30.7135 32.9725C31.7435 32.7924 32.5805 32.4524 33.2865 31.7422C33.9905 31.032 34.3325 30.2117 34.5085 29.1915C34.6765 28.2312 34.7015 27.0308 34.7335 25.5504V25.4904C34.7555 24.5002 34.7555 23.4998 34.7335 22.5096V22.4496C34.7015 20.9692 34.6765 19.7688 34.5085 18.8085C34.3325 17.7883 33.9905 16.968 33.2865 16.2578C32.5805 15.5476 31.7435 15.2076 30.7135 15.0275C29.7305 14.8575 28.5035 14.8275 26.9785 14.7875H26.9205H26.9195ZM19.3815 19.8489C19.0245 19.6388 18.5645 19.7589 18.3545 20.119C18.1435 20.4691 18.2615 20.9292 18.6175 21.1492L21.5595 22.8897C22.4305 23.3999 23.1825 23.7499 23.9995 23.7499C24.8165 23.7499 25.5685 23.3999 26.4395 22.8897L29.3815 21.1492C29.7375 20.9292 29.8565 20.4691 29.6455 20.119C29.4345 19.7589 28.9745 19.6388 28.6175 19.8489L25.6755 21.5894C24.8315 22.0895 24.3825 22.2495 23.9995 22.2495C23.6165 22.2495 23.1675 22.0895 22.3235 21.5894L19.3815 19.8489Z" fill="url(#paint0_linear_770_2620)"/>
</g>
<defs>
<linearGradient id="paint0_linear_770_2620" x1="24" y1="14.75" x2="24" y2="33.25" gradientUnits="userSpaceOnUse">
<stop stop-color="#9F5A5B"/>
<stop offset="1" stop-color="#B55253"/>
</linearGradient>
<clipPath id="clip0_770_2620">
<rect width="24" height="24" fill="white" transform="translate(12 12)"/>
</clipPath>
</defs>
</svg>
