<svg width="24" height="24" viewBox="0 0 24 24" fill="none" xmlns="http://www.w3.org/2000/svg">
<path d="M16 1C17.6569 1 19 2.34315 19 4V5H20C21.6569 5 23 6.34315 23 8V20C23 21.6569 21.6569 23 20 23H8C6.34315 23 5 21.6569 5 20V19H4C2.34315 19 1 17.6569 1 16V4C1 2.34315 2.34315 1 4 1H16ZM19 16C19 17.6569 17.6569 19 16 19H7V20C7 20.5523 7.44772 21 8 21H20C20.5523 21 21 20.5523 21 20V8C21 7.44772 20.5523 7 20 7H19V16ZM4 3C3.44772 3 3 3.44772 3 4V16C3 16.4285 3.26975 16.7932 3.64844 16.9355L11.0273 9.55859C12.1082 8.47773 13.8288 8.3821 15.0225 9.33691L17 10.918V4C17 3.44772 16.5523 3 16 3H4Z" fill="#8F8F8F"/>
</svg>
