<svg width="21" height="21" viewBox="0 0 21 21" fill="none" xmlns="http://www.w3.org/2000/svg">
<path opacity="0.4" d="M5.25 11.375C7.78706 11.375 9.84375 13.4317 9.84375 15.9688C9.84375 18.5058 7.78706 20.5625 5.25 20.5625C2.71294 20.5625 0.65625 18.5058 0.65625 15.9688C0.65625 13.4317 2.71294 11.375 5.25 11.375ZM15.75 0.4375C18.2871 0.4375 20.3438 2.49419 20.3438 5.03125C20.3438 7.56831 18.2871 9.625 15.75 9.625C13.2129 9.625 11.1562 7.56831 11.1562 5.03125C11.1562 2.49419 13.2129 0.4375 15.75 0.4375Z" fill="#8F8F8F"/>
<path d="M15.75 11.375C18.2871 11.375 20.3438 13.4317 20.3438 15.9688C20.3438 18.5058 18.2871 20.5625 15.75 20.5625C13.2129 20.5625 11.1562 18.5058 11.1562 15.9688C11.1562 13.4317 13.2129 11.375 15.75 11.375ZM5.25 0.4375C7.78706 0.4375 9.84375 2.49419 9.84375 5.03125C9.84375 7.56831 7.78706 9.625 5.25 9.625C2.71294 9.625 0.65625 7.56831 0.65625 5.03125C0.65625 2.49419 2.71294 0.4375 5.25 0.4375Z" fill="#8F8F8F"/>
</svg>
