<svg width="21" height="21" viewBox="0 0 21 21" fill="none" xmlns="http://www.w3.org/2000/svg">
<path d="M10.4999 1.75098C8.20738 1.75098 6.34363 3.61473 6.34363 5.90723C6.34363 8.15598 8.10238 9.97598 10.3949 10.0547C10.4649 10.046 10.5349 10.046 10.5874 10.0547C10.6049 10.0547 10.6136 10.0547 10.6311 10.0547C10.6399 10.0547 10.6399 10.0547 10.6486 10.0547C12.8886 9.97598 14.6474 8.15598 14.6561 5.90723C14.6561 3.61473 12.7924 1.75098 10.4999 1.75098Z" fill="#8F8F8F"/>
<path d="M14.945 12.3822C12.5037 10.7547 8.52247 10.7547 6.06372 12.3822C4.95247 13.126 4.33997 14.1322 4.33997 15.2085C4.33997 16.2847 4.95247 17.2822 6.05497 18.0172C7.27997 18.8397 8.88997 19.251 10.5 19.251C12.11 19.251 13.72 18.8397 14.945 18.0172C16.0475 17.2735 16.66 16.276 16.66 15.191C16.6512 14.1147 16.0475 13.1172 14.945 12.3822Z" fill="#8F8F8F"/>
</svg>
