<svg width="14" height="14" viewBox="0 0 14 14" fill="none" xmlns="http://www.w3.org/2000/svg">
<g clip-path="url(#clip0_675_3309)">
<path d="M8.71326 12.4025C8.46343 12.8982 8.29829 13.436 8.23502 14.0001L13.5219 12.9945C13.7717 12.499 13.9367 11.961 14.0001 11.397L8.71326 12.4025Z" fill="#E0E0E0"/>
<path d="M13.5216 10.9819C13.7714 10.4864 13.9366 9.94841 13.9998 9.38435L9.88154 10.168V8.66151L13.5215 7.96941C13.7713 7.47388 13.9364 6.9359 13.9997 6.37183L9.88142 7.15486V1.73689C9.25037 2.05391 8.68995 2.4759 8.23438 2.97365V7.4682L6.58734 7.78143V1C5.9563 1.31691 5.39587 1.73901 4.9403 2.23677V8.09455L1.25505 8.79522C1.00523 9.29075 0.839961 9.82874 0.776571 10.3928L4.9403 9.60109V11.4983L0.478049 12.3467C0.228223 12.8423 0.063083 13.3802 -0.000183105 13.9443L4.67055 13.0562C5.05077 12.9854 5.37756 12.7843 5.59003 12.5075L6.44661 11.3713C6.53553 11.2537 6.58734 11.1117 6.58734 10.9591V9.28786L8.23438 8.97463V11.9877L13.5216 10.9819Z" fill="#E0E0E0"/>
</g>
<defs>
<clipPath id="clip0_675_3309">
<rect width="14" height="14" fill="white"/>
</clipPath>
</defs>
</svg>
