<svg width="193" height="82" viewBox="0 0 193 82" fill="none" xmlns="http://www.w3.org/2000/svg">
<path d="M120.963 59.0603C125.506 64.1594 125.145 73.9654 119.909 78.4611C114.373 83.2585 102.697 83.1981 97.3709 78.1594C91.6837 72.7887 92.0448 61.806 98.5746 57.2198C104.593 53.0259 115.907 53.4181 120.963 59.0603ZM110.491 75.1723C110.882 74.9008 111.634 73.4223 111.725 72.9396C112.236 70.4654 112.387 64.4612 111.213 62.2284C110.07 60.0862 106.94 60.4181 106.037 62.7112C105.586 63.8275 105.466 65.8491 105.435 67.056C105.405 68.9568 105.435 72.487 106.248 74.1766C106.94 75.6249 109.347 76.0171 110.491 75.1723Z" fill="#818286"/>
<path d="M138.729 72.1893C138.667 72.9079 138.76 74.0639 139.285 74.5951C139.316 74.6263 140.027 75.095 140.058 75.095H142.84V82H124.911V75.095C126.364 75.095 127.786 74.97 127.94 73.2516C128.095 71.5019 128.188 65.0343 127.879 63.5346C127.6 62.1911 126.086 62.1598 124.942 62.0973V55.1923H147.23C149.116 55.1923 151.96 57.0982 152.887 58.7854C154.897 62.4098 154.557 69.0648 150.476 71.1582C149.981 71.4082 147.787 72.1893 147.385 72.1893H138.729ZM138.729 67.6901H141.017C141.078 67.6901 142.253 67.2214 142.346 67.1277C143.335 66.2841 143.242 63.4721 142.191 62.6285C142.068 62.5348 141.202 62.0661 141.14 62.0661H138.667V67.6901H138.729Z" fill="#818286"/>
<path d="M44.2564 71.3746C44.8799 73.1606 46.2455 75.2545 48.1456 75.7164C49.0065 75.9319 51.055 75.9627 51.6488 75.1929C53.0144 73.4069 49.8081 72.5448 48.68 72.1753C44.6424 70.8512 38.9126 69.8658 38.2594 64.354C37.3094 56.194 45.0877 53.4534 51.53 54.6851C53.0144 54.9623 54.4098 55.886 55.6863 56.2248C56.1317 56.3479 55.5676 55.3318 55.7457 55.0546L56.0426 54.8699L61.8318 54.9623V64.5079L61.5943 64.7543H55.8942C55.4785 61.9522 52.0347 59.5503 49.4518 60.8128C48.3831 61.3363 48.5315 62.5064 49.4518 63.1531C50.9659 64.1692 53.816 64.4771 55.627 65.1238C59.3973 66.4479 62.3365 68.5725 62.6037 73.0374C62.8412 77.1944 60.8224 79.935 57.052 81.1974C53.0441 82.5215 48.2346 82.2444 44.5533 80.0889L44.4049 81.1974L44.1674 81.4438C44.0486 81.5054 43.9595 81.3514 43.9299 81.3514H38.3782V71.8057C38.3782 71.7442 38.586 71.5594 38.5266 71.4054H44.2564V71.3746Z" fill="#818286"/>
<path d="M91.7956 55.1923V65.5454L91.5563 65.7882H85.8734L85.6342 65.5454V62.7522C85.6342 62.6914 85.2154 61.8717 85.1855 61.811C84.7967 61.2038 83.5405 61.2645 82.8824 61.2645V73.3481C82.8824 73.4088 83.3909 74.0767 83.5105 74.1071C84.1985 74.5322 85.2154 74.35 85.8136 74.7447V80.9687L85.5743 81.2116H69.5426V74.5018C70.2604 74.684 72.2943 74.2286 72.2943 73.3481V61.2645C71.5166 61.2645 70.1707 61.2341 69.8417 62.1146C69.7818 62.236 69.5426 63.1469 69.5426 63.2076V65.5454L69.3033 65.7882H63.5606C63.6204 65.6364 63.411 65.4543 63.411 65.3936V55.1923H91.7956Z" fill="#818286"/>
<path d="M93.6472 7.12661C106.232 5.63581 116.217 17.5623 112.032 29.608C107.428 42.9358 89.3126 45.1124 81.6598 33.2456C75.0533 23.0484 81.3908 8.5876 93.6472 7.12661ZM95.4408 17.2939C91.1959 17.5026 88.2364 21.9751 89.4322 25.9704C91.0464 31.4864 98.6394 32.6194 101.689 27.7296C104.708 22.8695 101.061 16.9958 95.4408 17.2939Z" fill="#818286"/>
<path fill-rule="evenodd" clip-rule="evenodd" d="M85.1538 0.267163C85.1538 0.414473 83.717 1.23373 81.9606 2.08852C79.2727 3.39655 78.3194 4.08723 75.9364 6.45357C73.6599 8.71428 72.8464 9.79714 71.7823 11.9819C70.1425 15.3494 69.4321 18.6881 69.4377 23.0038C69.4511 33.3536 74.289 41.4005 82.5278 44.7764C83.702 45.2574 84.8024 45.7736 84.9737 45.9235C85.1446 46.0734 80.834 46.2253 75.3941 46.2608C69.9542 46.2963 64.9505 46.3328 64.2752 46.3415L63.047 46.3577L62.9579 40.5015L62.8688 34.6452L64.8365 34.5047C66.3267 34.3984 67.0043 34.179 67.6275 33.6014C68.4437 32.8452 68.4509 32.7912 68.4509 27.4031C68.4509 24.398 68.3192 21.9674 68.1561 21.9674C67.994 21.9674 65.8141 25.1291 63.3113 28.9938C60.8088 32.8584 57.2203 38.3806 55.3365 41.2658L51.9117 46.5112L42.3835 46.5154L32.8556 46.5192L32.6411 40.9466C32.5235 37.8818 32.4266 33.4476 32.4259 31.0936L32.425 26.8132L31.1149 26.8132C30.3944 26.8132 29.8223 26.704 29.8435 26.5709C30.003 25.5759 29.7459 25.521 24.9273 25.521C19.5555 25.521 19.6521 25.5594 19.6521 23.4157C19.6521 22.8199 19.7959 21.9597 19.9714 21.5038L20.2908 20.6752L25.0262 20.6752L29.7613 20.6752L29.8652 19.7868C29.9549 19.0157 30.1416 18.8771 31.2787 18.7369L32.5887 18.5754L32.5763 16.6371C32.5576 13.7435 32.2533 12.9533 30.9502 12.4161C30.3319 12.1612 29.4653 11.9529 29.0241 11.9529L28.2227 11.9529L28.1045 6.38024C28.0393 3.31514 28.0426 0.626074 28.1117 0.403815C28.2089 0.0920716 30.5791 2.17474e-06 38.5189 1.85835e-06L48.8004 1.44864e-06L48.8004 5.93443L48.8004 11.8689L47.2899 12.0369C44.5781 12.3383 44.396 12.7485 44.2732 18.8261C44.1805 23.4121 44.2264 24.0065 44.6423 23.5827C44.9037 23.3162 48.2462 18.2281 52.0699 12.2759C55.8936 6.32371 59.3268 1.12648 59.6995 0.726864L60.3775 9.87308e-07L72.7655 4.9366e-07C79.579 2.22151e-07 85.1538 0.120175 85.1538 0.267163ZM21.4141 7.76613C22.6167 9.17592 23.9225 13.5316 24.1455 16.8794L24.3342 19.7061L22.0331 19.7061C19.0675 19.7061 18.8307 19.9706 18.8419 23.2703C18.8533 26.568 19.0777 26.8132 22.0822 26.8132L24.4321 26.8132L24.1976 29.2322C23.9061 32.2436 23.7054 33.2409 22.8837 35.7604C21.0748 41.3046 18.6919 40.494 16.9689 33.7487C16.3086 31.1637 16.2277 30.0505 16.2208 23.4211C16.2146 17.2741 16.3194 15.5445 16.827 13.4066C17.5954 10.1696 18.7358 7.59104 19.6004 7.13457C20.4948 6.66227 20.463 6.65128 21.4141 7.76613ZM18.0146 7.00502C18.0146 7.12681 17.7218 7.82266 17.3638 8.55211C14.1677 15.0645 14.0825 31.0186 17.2079 37.7523C17.6517 38.7082 18.0146 39.5452 18.0146 39.6127C18.0146 39.6799 17.0796 39.7352 15.9366 39.7352C13.5317 39.7352 13.2369 39.5178 11.9848 36.819C10.6696 33.9839 10.0532 29.6773 10.0447 23.2596C10.0348 15.7258 11.1435 10.1208 13.139 7.6185C13.7314 6.8758 14.0363 6.78406 15.9097 6.78406C17.0674 6.78406 18.0146 6.88356 18.0146 7.00502ZM10.4793 11.049C8.34229 18.1493 8.35603 29.8101 10.5087 35.8586C10.8566 36.8358 11.1769 37.7807 11.2208 37.9584C11.2646 38.1361 10.6158 38.3251 9.77906 38.3787C8.43104 38.4646 8.18344 38.3726 7.60703 37.5711C4.11382 32.7111 3.91961 15.6137 7.28967 9.5736C7.9961 8.30692 8.12154 8.23294 9.7093 8.14151L11.3835 8.04525L10.4793 11.049ZM4.34111 11.215C5.39471 11.3727 5.38128 11.2874 4.7148 13.5681C3.90389 16.3425 3.71753 26.054 4.38925 30.5282C4.68269 32.4827 5.01154 34.409 5.12026 34.8087C5.29843 35.4625 5.20148 35.5355 4.15705 35.5355C2.15335 35.5355 1.31592 34.1635 0.498788 29.5413C-0.648147 23.0532 0.279358 13.8375 2.29419 11.7044C2.66853 11.3081 3.07955 11.0054 3.20761 11.0322C3.33566 11.0587 3.8456 11.141 4.34111 11.215Z" fill="#BA807C"/>
<path fill-rule="evenodd" clip-rule="evenodd" d="M107 0.267163C107 0.414473 108.437 1.23373 110.193 2.08852C112.881 3.39655 113.834 4.08723 116.217 6.45357C118.494 8.71428 119.307 9.79714 120.372 11.9819C122.011 15.3494 122.722 18.6881 122.716 23.0038C122.703 33.3536 117.865 41.4005 109.626 44.7764C108.452 45.2574 107.351 45.7736 107.18 45.9235C107.009 46.0734 111.32 46.2253 116.76 46.2608C122.2 46.2963 127.203 46.3328 127.879 46.3415L129.107 46.3577L129.196 40.5014L129.285 34.6452L127.317 34.5047C125.827 34.3984 125.15 34.179 124.526 33.6014C123.71 32.8452 123.703 32.7912 123.703 27.4031C123.703 24.398 123.835 21.9674 123.998 21.9674C124.16 21.9674 126.34 25.1291 128.843 28.9938C131.345 32.8584 134.934 38.3806 136.817 41.2658L140.242 46.5112L149.77 46.5154L159.298 46.5192L159.513 40.9466C159.63 37.8818 159.727 33.4476 159.728 31.0936L159.729 26.8132L161.039 26.8132C161.759 26.8132 162.332 26.704 162.31 26.5709C162.151 25.5759 162.408 25.521 167.227 25.521C172.598 25.521 172.502 25.5594 172.502 23.4156C172.502 22.8199 172.358 21.9597 172.182 21.5038L171.863 20.6752L167.128 20.6752L162.392 20.6752L162.289 19.7868C162.199 19.0157 162.012 18.8771 160.875 18.7369L159.565 18.5754L159.578 16.6371C159.596 13.7435 159.9 12.9533 161.204 12.4161C161.822 12.1612 162.689 11.9529 163.13 11.9529L163.931 11.9529L164.049 6.38024C164.115 3.31514 164.111 0.626069 164.042 0.40381C163.945 0.092067 161.575 -2.17474e-06 153.635 -1.85835e-06L143.353 -1.44864e-06L143.353 5.93443L143.353 11.8689L144.864 12.0368C147.576 12.3383 147.758 12.7485 147.881 18.8261C147.973 23.4121 147.927 24.0065 147.511 23.5827C147.25 23.3161 143.908 18.2281 140.084 12.2759C136.26 6.32371 132.827 1.12648 132.454 0.726862L131.776 -9.87308e-07L119.388 -4.9366e-07C112.575 -2.22151e-07 107 0.120175 107 0.267163ZM170.74 7.76612C169.537 9.17592 168.231 13.5316 168.008 16.8794L167.82 19.7061L170.121 19.7061C173.086 19.7061 173.323 19.9706 173.312 23.2703C173.3 26.568 173.076 26.8132 170.072 26.8132L167.722 26.8132L167.956 29.2322C168.248 32.2436 168.448 33.2409 169.27 35.7604C171.079 41.3046 173.462 40.494 175.185 33.7487C175.845 31.1637 175.926 30.0505 175.933 23.4211C175.939 17.2741 175.834 15.5445 175.327 13.4066C174.558 10.1696 173.418 7.59103 172.553 7.13456C171.659 6.66226 171.691 6.65128 170.74 7.76612ZM174.139 7.00502C174.139 7.12681 174.432 7.82266 174.79 8.55211C177.986 15.0645 178.071 31.0186 174.946 37.7523C174.502 38.7082 174.139 39.5452 174.139 39.6127C174.139 39.6799 175.074 39.7352 176.217 39.7352C178.622 39.7352 178.917 39.5178 180.169 36.819C181.484 33.9839 182.101 29.6773 182.109 23.2596C182.119 15.7258 181.01 10.1208 179.015 7.61849C178.422 6.8758 178.117 6.78405 176.244 6.78405C175.086 6.78405 174.139 6.88355 174.139 7.00502ZM181.675 11.049C183.812 18.1493 183.798 29.8101 181.645 35.8586C181.297 36.8358 180.977 37.7807 180.933 37.9584C180.889 38.1361 181.538 38.3251 182.375 38.3787C183.723 38.4646 183.97 38.3725 184.547 37.5711C188.04 32.7111 188.234 15.6137 184.864 9.57359C184.158 8.30691 184.032 8.23293 182.445 8.14151L180.77 8.04524L181.675 11.049ZM187.813 11.215C186.759 11.3727 186.773 11.2874 187.439 13.5681C188.25 16.3425 188.436 26.054 187.765 30.5282C187.471 32.4827 187.142 34.409 187.034 34.8087C186.855 35.4625 186.952 35.5355 187.997 35.5355C190 35.5355 190.838 34.1635 191.655 29.5413C192.802 23.0532 191.874 13.8375 189.86 11.7044C189.485 11.308 189.074 11.0053 188.946 11.0322C188.818 11.0587 188.308 11.141 187.813 11.215Z" fill="#BA807C"/>
</svg>
